<?xml version="1.0" encoding="iso-8859-1"?>
<!-- Generator: Adobe Illustrator 16.0.0, SVG Export Plug-In . SVG Version: 6.00 Build 0)  -->
<!DOCTYPE svg PUBLIC "-//W3C//DTD SVG 1.1//EN" "http://www.w3.org/Graphics/SVG/1.1/DTD/svg11.dtd">
<svg version="1.1" id="Capa_1" xmlns="http://www.w3.org/2000/svg" xmlns:xlink="http://www.w3.org/1999/xlink" x="0px" y="0px"
	 width="612.787px" height="612.786px" viewBox="0 0 612.787 612.786" style="enable-background:new 0 0 612.787 612.786;"
	 xml:space="preserve" fill="#2a3c46">
<g>
	<g id="home">
		<g>
			<path d="M601.181,270.98L341.874,11.654c-7.957-7.957-18.517-11.534-28.922-11.018c-12.243-2.219-25.327,1.358-34.795,10.808
				L153.304,136.354V76.979c0-21.137-17.12-38.257-38.257-38.257S76.79,55.842,76.79,76.979v133.9c0,0.631,0.153,1.225,0.191,1.836
				L11.906,277.81c-15.341,15.322-15.341,40.151,0,55.473c7.364,7.365,16.967,10.98,26.627,11.267v201.08
				c0,26.417,38.754,70.546,76.514,66.95h114.771c21.137,0,38.257-17.12,38.257-38.257V459.551c0-21.138,17.12-38.258,38.257-38.258
				c21.138,0,38.258,17.12,38.258,38.258v114.771c0,21.137,17.12,38.257,38.257,38.257h133.9c26.416,0,57.386-40.533,57.386-66.95
				V336.286c9.794,0,19.587-3.73,27.048-11.21C616.121,310.137,616.121,285.92,601.181,270.98z M496.26,296.958
				c0.804,3.079,1.358,6.235,1.358,9.563v191.286c0,14.117-7.747,31.639-19.129,38.257h-57.386v-76.514
				c0-2.984-0.421-5.835-1.052-8.628c0.631-3.424,1.052-6.905,1.052-10.501v-38.257c0-31.696-25.689-57.387-57.386-57.387H248.947
				c-31.696,0-57.386,25.69-57.386,57.387v38.257c0,3.596,0.421,7.097,1.052,10.501c-0.65,2.774-1.052,5.644-1.052,8.628v76.514
				h-57.386c-11.381-6.618-19.128-24.14-19.128-38.257V306.521c0-3.328,0.555-6.484,1.358-9.563H103.78L312.148,88.475
				l206.99,208.464H496.26V296.958z"/>
		</g>
	</g>
</g>
<g>
</g>
<g>
</g>
<g>
</g>
<g>
</g>
<g>
</g>
<g>
</g>
<g>
</g>
<g>
</g>
<g>
</g>
<g>
</g>
<g>
</g>
<g>
</g>
<g>
</g>
<g>
</g>
<g>
</g>
</svg>
